<svg xmlns="http://www.w3.org/2000/svg" xmlns:xlink="http://www.w3.org/1999/xlink" width="400" zoomAndPan="magnify" viewBox="0 0 300 374.999991" height="500" preserveAspectRatio="xMidYMid meet" version="1.2"><defs><clipPath id="21856217d8"><path d="M 25 0 L 270 0 L 270 375 L 25 375 Z M 25 0 "/></clipPath><clipPath id="bb2c3400f2"><path d="M 270.949219 -0.332031 L 269.988281 375.707031 L 25.328125 375.082031 L 26.289062 -0.957031 Z M 270.949219 -0.332031 "/></clipPath><clipPath id="5bce272d02"><path d="M 134.992188 15.433594 C 144.984375 28.808594 151.90625 40.578125 156.675781 52.214844 C 158.457031 56.554688 158.492188 56.875 156.988281 54.488281 C 155.183594 51.625 152.15625 47.117188 150.347656 44.644531 C 146.257812 38.980469 144.714844 36.382812 138.117188 23.902344 C 135.925781 19.757812 133.359375 14.953125 132.402344 13.226562 C 131.449219 11.496094 130.636719 9.96875 130.601562 9.808594 C 130.511719 9.503906 131.664062 10.964844 134.976562 15.433594 M 160.855469 280.878906 C 160.996094 280.84375 162.738281 280.6875 164.746094 280.515625 C 168.109375 280.238281 169.476562 280.15625 170.683594 280.15625 C 170.933594 280.160156 171.910156 280.125 172.855469 280.09375 C 180.425781 279.808594 191.25 280.601562 200.96875 282.136719 C 202.460938 282.371094 203.9375 282.605469 204.253906 282.644531 C 204.574219 282.679688 204.804688 282.75 204.789062 282.785156 C 204.628906 283.089844 189.675781 283.777344 183.242188 283.761719 C 179.15625 283.769531 172.507812 282.988281 164.796875 281.601562 C 163.394531 281.347656 161.917969 281.113281 161.492188 281.078125 C 160.621094 280.984375 160.5 280.949219 160.835938 280.878906 M 173.835938 251.070312 C 173.800781 251.050781 174.6875 250.414062 175.792969 249.632812 C 181.207031 245.949219 189.910156 240.78125 197.992188 236.484375 C 210.808594 229.65625 220.007812 225.289062 235.417969 218.734375 C 236.238281 218.378906 239.296875 217.054688 242.214844 215.78125 C 245.132812 214.511719 247.714844 213.414062 247.925781 213.363281 C 248.460938 213.203125 244.6875 215.664062 238.296875 219.664062 C 235.429688 221.453125 231.617188 223.824219 229.839844 224.941406 C 215.773438 233.757812 209.5625 236.746094 195.347656 241.523438 C 186.238281 244.59375 180.671875 246.980469 175.863281 249.917969 C 174.777344 250.574219 173.871094 251.105469 173.816406 251.085938 M 205.761719 180.386719 C 208.863281 176.183594 217.851562 164.332031 220.226562 161.316406 C 229.195312 149.929688 232.476562 145.171875 238.242188 135.269531 C 240.082031 132.128906 241.851562 129.09375 242.1875 128.542969 C 242.527344 127.992188 243.992188 125.472656 245.4375 122.953125 C 247.957031 118.535156 248.027344 118.410156 247.542969 119.8125 C 245.128906 126.578125 239.765625 137.816406 235.554688 144.914062 C 234.105469 147.363281 232.839844 149.441406 232.75 149.527344 C 232.660156 149.617188 232.109375 150.433594 231.519531 151.339844 C 226.613281 158.988281 217.519531 169.699219 207.824219 179.203125 C 206.3125 180.691406 204.8125 182.164062 204.527344 182.464844 C 204.242188 182.765625 203.976562 182.960938 203.976562 182.925781 C 203.976562 182.890625 204.761719 181.738281 205.761719 180.386719 M 214.632812 102.644531 C 214.617188 102.59375 215.882812 101.351562 217.429688 99.898438 C 222.792969 94.8125 229.402344 89.121094 238.132812 82.050781 C 247.195312 74.714844 262.925781 62.277344 262.960938 62.402344 C 262.976562 62.4375 262.746094 62.742188 262.441406 63.078125 C 262.140625 63.414062 260.640625 65.082031 259.125 66.835938 C 252.546875 74.320312 251.300781 75.6875 248.394531 78.59375 C 245.417969 81.574219 243.796875 83.042969 241.054688 85.277344 C 236.871094 88.660156 234.054688 90.554688 225.296875 95.902344 C 222.664062 97.511719 218.371094 100.257812 215.613281 102.117188 C 215.097656 102.46875 214.652344 102.71875 214.632812 102.683594 M 183.808594 76.066406 C 183.773438 76.136719 183.738281 75.746094 183.722656 75.210938 C 183.707031 74.679688 183.742188 74.199219 183.761719 74.144531 C 183.902344 73.898438 183.585938 66.234375 183.226562 61.097656 C 182.246094 47.054688 182.203125 43.960938 182.886719 33.296875 C 183.128906 29.636719 183.226562 26.1875 183.160156 24.179688 C 183.144531 23.519531 183.144531 22.988281 183.179688 23.023438 C 183.269531 23.078125 184.371094 29.957031 184.804688 33.25 C 186.324219 44.363281 186.148438 58.226562 184.332031 72.335938 C 184.078125 74.324219 183.84375 76.011719 183.789062 76.082031 M 124.4375 0.65625 C 124.257812 1.097656 124.984375 2.648438 129.15625 10.710938 C 131.105469 14.449219 132.75 17.5625 139.0625 29.273438 C 143.167969 36.894531 145.382812 40.472656 148.851562 45.136719 C 149.703125 46.277344 152.34375 49.839844 154.734375 53.0625 C 157.125 56.285156 159.128906 58.957031 159.214844 59.011719 C 159.464844 59.152344 161.878906 67.796875 163.054688 72.757812 C 164.359375 78.21875 164.777344 81.1875 165.414062 89.296875 C 167.1875 111.679688 166.546875 132.792969 163.414062 154.648438 C 158.65625 187.839844 147.402344 223.753906 130.425781 259.722656 C 127.242188 266.449219 125.671875 269.449219 119.957031 279.691406 C 114.527344 289.398438 113.207031 291.601562 108.570312 298.484375 C 103.75 305.652344 97.242188 314.1875 95.550781 315.550781 C 94.980469 316.011719 94.710938 316.332031 94.78125 316.472656 C 94.855469 316.617188 94.070312 317.644531 92.480469 319.488281 C 84.921875 328.25 73.074219 340.003906 61.796875 349.914062 C 50.054688 360.246094 41.507812 366.515625 34.015625 370.335938 C 32.058594 371.328125 28.660156 372.792969 27.574219 373.109375 C 26.1875 373.515625 25.316406 373.886719 25.332031 374.082031 C 25.347656 374.472656 25.542969 374.457031 27.339844 373.910156 C 28.320312 373.609375 29.6875 373.152344 30.402344 372.867188 C 33.496094 371.667969 38.105469 369.28125 38.019531 368.941406 C 38 368.851562 38.054688 368.835938 38.160156 368.890625 C 38.355469 368.996094 41.3125 367.207031 43.660156 365.5625 C 46.972656 363.222656 49.609375 361.347656 49.664062 361.257812 C 49.699219 361.203125 49.984375 360.957031 50.304688 360.707031 C 50.625 360.460938 51.140625 360.070312 51.445312 359.839844 C 51.746094 359.609375 52.335938 359.148438 52.761719 358.832031 C 53.1875 358.511719 54.792969 357.183594 56.359375 355.890625 C 57.925781 354.59375 59.441406 353.320312 59.746094 353.070312 C 63.128906 350.253906 72.304688 341.886719 77.007812 337.332031 C 84.152344 330.417969 90.160156 324.121094 94.972656 318.5 C 96.613281 316.585938 98.253906 314.8125 98.609375 314.582031 C 101.171875 312.847656 107.640625 307.28125 119.578125 296.503906 C 122.621094 293.757812 125.332031 291.417969 125.578125 291.328125 C 125.828125 291.242188 127.644531 290.355469 129.621094 289.402344 C 131.59375 288.449219 134.390625 287.210938 135.828125 286.679688 C 141.148438 284.722656 149.972656 282.398438 154.132812 281.859375 C 156.691406 281.527344 160.335938 281.855469 166.214844 282.917969 C 180.730469 285.550781 182.226562 285.679688 192.871094 285.246094 C 199.363281 284.976562 201.832031 284.769531 206.207031 284.195312 C 209.300781 283.792969 209.957031 283.617188 210.011719 283.226562 C 210.121094 282.5 209.304688 282.300781 201.574219 281.230469 C 191.164062 279.785156 188.640625 279.546875 181.9375 279.261719 C 171.0625 278.808594 165.496094 279.097656 153.941406 280.703125 C 150.738281 281.136719 149.101562 281.542969 142.078125 283.515625 C 136.847656 284.996094 133.378906 286.285156 130.03125 287.964844 C 128.839844 288.566406 127.894531 289.007812 127.933594 288.953125 C 128.003906 288.828125 138.246094 279.59375 142.097656 276.175781 C 143.699219 274.757812 144.964844 273.570312 144.910156 273.53125 C 144.859375 273.496094 144.945312 273.425781 145.105469 273.355469 C 145.265625 273.285156 146.460938 272.328125 147.777344 271.195312 C 151.589844 267.914062 158.058594 262.5625 159.355469 261.625 C 159.785156 261.324219 160.460938 260.792969 160.871094 260.457031 C 163.3125 258.472656 167.335938 255.550781 167.816406 255.445312 C 168.652344 255.25 169.753906 254.683594 171.074219 253.800781 C 171.714844 253.375 172.550781 252.878906 172.941406 252.703125 C 173.332031 252.523438 174.738281 251.746094 176.074219 250.949219 C 179.277344 249.039062 180.363281 248.507812 184.582031 246.707031 C 188.761719 244.921875 190.683594 244.214844 194.828125 242.875 C 203.722656 240.019531 209.933594 237.667969 214.773438 235.371094 C 218.921875 233.390625 228.230469 227.976562 237.042969 222.417969 C 238.183594 221.691406 240.160156 220.46875 241.421875 219.691406 C 247.246094 216.113281 254.402344 211.136719 254.832031 210.359375 C 255.011719 210.039062 254.371094 209.628906 253.800781 209.699219 C 253.589844 209.730469 250.777344 210.96875 247.574219 212.453125 C 241.71875 215.160156 236.984375 217.296875 234.226562 218.480469 C 216.824219 225.882812 198.546875 234.9375 185.089844 242.8125 C 172.71875 250.050781 159.574219 259.511719 147.035156 270.195312 C 144.433594 272.414062 139.464844 276.71875 139 277.160156 C 138.785156 277.355469 137.894531 278.171875 136.988281 278.96875 C 136.078125 279.765625 130.539062 284.800781 124.640625 290.152344 C 110.566406 302.953125 100.074219 312.273438 101.105469 311.050781 C 102.835938 309.011719 108.027344 301.789062 111.078125 297.195312 C 119.679688 284.277344 126.785156 271.210938 134.847656 253.546875 C 136.957031 248.914062 137.046875 248.753906 138.597656 246.660156 C 143.253906 240.378906 144.945312 238.589844 159.164062 225.007812 C 172.761719 212.03125 180.207031 205.261719 190.363281 196.71875 C 193.65625 193.9375 199.75 188.550781 202.492188 185.980469 C 225.140625 164.777344 237.339844 147.675781 246.894531 123.757812 C 248.699219 119.226562 248.648438 119.371094 249.632812 116.652344 C 250.796875 113.457031 250.8125 113.402344 252.261719 110.15625 C 254.03125 106.160156 254.410156 104.417969 253.554688 104.453125 C 253.269531 104.46875 253.144531 104.71875 252.574219 106.210938 C 251.820312 108.199219 248.445312 114.355469 242.769531 124.046875 C 240.789062 127.457031 237.878906 132.40625 236.34375 135.050781 C 233.808594 139.398438 231.023438 143.925781 229.488281 146.160156 C 227.1875 149.53125 226.132812 151.023438 224.546875 153.167969 C 223.546875 154.519531 222.566406 155.847656 222.371094 156.097656 C 218.660156 160.867188 215.113281 165.515625 213.222656 168.054688 C 211.921875 169.808594 209.90625 172.507812 208.726562 174.085938 C 205.464844 178.433594 201.574219 183.914062 200.574219 185.546875 C 200.09375 186.347656 199.503906 187.164062 199.253906 187.339844 C 199.007812 187.515625 198.097656 188.3125 197.207031 189.113281 C 195.621094 190.511719 188.796875 196.34375 186.179688 198.558594 C 184.824219 199.691406 183.328125 200.96875 180.925781 203.042969 C 180.140625 203.714844 178.574219 205.0625 177.449219 206.035156 C 170.09375 212.382812 149.90625 231.492188 144.914062 236.847656 C 143.703125 238.160156 141.972656 240.125 141.101562 241.226562 C 140.226562 242.328125 139.460938 243.230469 139.441406 243.25 C 139.425781 243.265625 139.925781 241.988281 140.585938 240.40625 C 147.1875 224.695312 153.402344 206.527344 157.421875 191.160156 C 158.910156 185.476562 159.054688 185.140625 162.894531 177.824219 C 164.324219 175.109375 165.484375 172.800781 165.484375 172.730469 C 165.46875 172.484375 177.234375 151.414062 178.554688 149.300781 C 179.214844 148.253906 180.785156 145.734375 182.035156 143.730469 C 184.179688 140.285156 186.621094 136.488281 187.890625 134.644531 C 188.191406 134.199219 188.996094 133.027344 189.671875 132.054688 C 194.4375 125.117188 201.410156 116.460938 207.128906 110.359375 C 209.5 107.824219 210.054688 107.34375 212.882812 105.378906 C 216.304688 102.988281 222.695312 98.792969 225.1875 97.324219 C 226.058594 96.808594 227.324219 96.046875 228 95.625 C 228.675781 95.199219 230.242188 94.242188 231.453125 93.515625 C 239.925781 88.421875 247 82.660156 253.683594 75.371094 C 256.535156 72.25 260.597656 67.640625 263.953125 63.703125 C 265.378906 62.035156 267.304688 59.835938 268.246094 58.824219 C 270.117188 56.769531 270.261719 56.378906 269.160156 56.375 C 268.644531 56.375 267.789062 56.992188 263.730469 60.308594 C 261.074219 62.46875 257.992188 64.949219 256.90625 65.816406 C 231.9375 85.539062 220.054688 95.53125 212.445312 103.210938 C 211.269531 104.398438 210.183594 105.425781 210.039062 105.480469 C 209.417969 105.742188 208.777344 106.453125 200.878906 115.535156 C 192.125 125.625 184.488281 136.695312 174.492188 153.753906 C 171.492188 158.882812 164.617188 171.769531 161.863281 177.433594 C 160.953125 179.3125 160.148438 180.859375 160.097656 180.875 C 160.042969 180.894531 160.292969 179.578125 160.65625 177.980469 C 162.46875 170.128906 164.292969 159.574219 165.417969 150.65625 C 165.796875 147.632812 166.179688 144.683594 166.269531 144.117188 C 166.574219 142.304688 168.347656 136.796875 171.320312 128.414062 C 175.222656 117.476562 178.757812 105.578125 181.074219 95.574219 C 182.0625 91.292969 183.015625 86.871094 183.125 85.945312 C 183.160156 85.609375 183.449219 83.992188 183.773438 82.375 C 184.277344 79.765625 184.515625 78.289062 185.148438 73.9375 C 185.238281 73.3125 185.273438 72.621094 185.238281 72.390625 C 185.203125 72.160156 185.242188 71.875 185.3125 71.730469 C 185.492188 71.414062 185.835938 68.375 186.238281 63.539062 C 186.441406 61.195312 186.703125 55.917969 186.691406 54.582031 C 186.675781 53.78125 186.695312 52.164062 186.714844 51.011719 C 186.757812 48.878906 186.628906 43.777344 186.507812 42.476562 C 186.472656 42.085938 186.4375 41.519531 186.4375 41.214844 C 186.441406 40.914062 186.386719 40.21875 186.320312 39.6875 C 186.25 39.152344 186.144531 38.085938 186.09375 37.320312 C 185.992188 35.738281 185.660156 32.878906 185.574219 32.644531 C 185.539062 32.574219 185.484375 32.183594 185.46875 31.808594 C 185.433594 31.222656 185.101562 29.019531 184.015625 22.351562 C 183.894531 21.605469 183.773438 20.625 183.71875 20.164062 C 183.566406 18.4375 183.25 16.304688 183.003906 15.363281 C 182.792969 14.527344 182.703125 14.382812 182.367188 14.453125 C 182.152344 14.488281 181.902344 14.667969 181.8125 14.808594 C 181.636719 15.109375 181.523438 17.527344 181.609375 19.199219 C 181.691406 20.941406 181.53125 27.90625 181.386719 29.84375 C 181 34.679688 180.621094 42.871094 180.667969 45.609375 C 180.699219 47.296875 181.09375 53.574219 181.539062 59.566406 C 181.988281 65.554688 182.449219 72.082031 182.550781 74.054688 C 182.652344 76.027344 182.789062 78.125 182.824219 78.695312 C 182.996094 80.953125 182.90625 81.75 181.699219 87.382812 C 179.179688 99.179688 175.488281 112.054688 170.417969 126.566406 C 169.578125 128.996094 168.449219 132.285156 167.914062 133.898438 C 167.375 135.515625 166.910156 136.828125 166.875 136.847656 C 166.839844 136.867188 166.875 136.03125 166.96875 135 C 167.40625 129.84375 167.738281 118.703125 167.648438 112.355469 C 167.527344 104.214844 167.171875 96 166.945312 95.679688 C 166.890625 95.609375 166.890625 95.484375 166.945312 95.398438 C 167.050781 95.183594 166.621094 89.742188 166.117188 85.191406 C 165.910156 83.21875 165.648438 80.730469 165.542969 79.679688 C 165.335938 77.457031 165.371094 77.636719 164.25 72.265625 C 163.195312 67.230469 161.011719 59.476562 159.617188 55.792969 C 154.355469 41.914062 146.761719 28.867188 134.855469 13.285156 C 132.394531 10.078125 131.863281 9.402344 131.703125 9.292969 C 131.648438 9.257812 131.578125 9.132812 131.527344 9.007812 C 131.472656 8.886719 130.480469 7.53125 129.328125 6.019531 C 128.179688 4.503906 126.816406 2.597656 126.320312 1.761719 C 125.609375 0.570312 125.328125 0.25 125.007812 0.246094 C 124.742188 0.246094 124.527344 0.390625 124.4375 0.65625 "/></clipPath></defs><g id="846aa74006"><g clip-rule="nonzero" clip-path="url(#21856217d8)"><g clip-rule="nonzero" clip-path="url(#bb2c3400f2)"><g clip-rule="nonzero" clip-path="url(#5bce272d02)"><path style=" stroke:none;fill-rule:nonzero;fill:#706a53;fill-opacity:1;" d="M 269.996094 0.617188 L 269.039062 374.753906 L 25.328125 374.128906 L 26.285156 -0.00390625 Z M 269.996094 0.617188 "/></g></g></g></g></svg>