<svg width="120" height="120" viewBox="0 0 120 120" fill="none" xmlns="http://www.w3.org/2000/svg">
<path d="M29.4226 92.888C33.2596 104.464 44.9256 112.522 60.9186 112.334C77.5973 112.138 88.798 103.623 91.8105 91.3695C103.852 88.553 113.649 75.9317 113.445 58.5428C113.249 41.4559 104.407 28.6142 90.9451 27.4549C87.3938 15.4541 75.5808 7.00456 59.2205 7.19233C42.1255 7.38826 30.7777 16.3195 28.1082 29.0714C16.2706 32.1001 6.72714 44.6235 6.92307 61.8001C7.119 78.887 15.9604 91.7287 29.4226 92.888ZM29.7083 84.8711C29.5532 71.8988 41.8887 63.7186 58.7633 63.1145C57.5877 73.654 50.6158 81.181 49.3178 82.4954C45.5216 85.8671 40.46 88.406 34.3535 88.4795C32.8269 88.4958 31.39 88.3162 30.0185 87.9897C29.8471 86.9855 29.7246 85.9487 29.7083 84.8629V84.8711ZM90.0553 89.9653C89.0511 90.1694 88.0225 90.3164 86.9448 90.3327C78.928 90.4225 74.2664 85.0589 71.5723 76.3644H70.8621L67.27 81.9566C71.1152 87.9244 78.83 92.0797 86.9612 91.9818C87.7531 91.9736 88.5368 91.9083 89.3205 91.8185C85.2958 100.439 74.3807 105.583 60.6083 105.738C46.4604 105.901 35.8148 101.272 31.6513 92.9941C31.6676 92.9941 31.6839 92.9941 31.6921 92.9941C39.3906 92.9043 45.0563 89.353 49.1137 85.1323C49.1953 85.0507 49.2688 84.9691 49.3504 84.8792C49.6443 84.5609 49.9382 84.2506 50.2158 83.9322C57.1061 76.3562 59.4573 68.1679 60.2573 63.0655C60.29 63.0655 60.3144 63.0655 60.3471 63.0655C60.3879 63.0655 60.4206 63.0655 60.4532 63.0655C78.5361 62.9594 90.8471 70.6824 91.0023 83.9241C91.0268 86.0793 90.6757 88.0876 90.0471 89.9653H90.0553ZM91.9574 32.8267C101.632 36.1576 106.963 47.9461 107.118 61.3266C107.265 74.0622 101.681 85.9732 92.2432 89.353C92.5289 87.6713 92.684 85.9324 92.6595 84.1363C92.5371 73.3764 86.406 64.3391 76.3319 59.7347C86.4468 55.0813 92.2105 45.9623 92.088 34.8758C92.088 34.1819 92.0146 33.5043 91.9574 32.8267ZM90.4308 34.6554C90.5777 47.5461 78.4137 55.6936 61.7186 56.4038C63.1555 46.297 69.7927 39.1292 71.0581 37.8475C74.8542 34.4758 79.9158 31.9369 86.0223 31.8634C87.5163 31.8471 88.9287 32.0267 90.2675 32.3369C90.3655 33.0961 90.4226 33.8635 90.4308 34.6636V34.6554ZM29.7899 30.5C30.9573 30.2225 32.1656 30.0347 33.431 30.0184C41.4478 29.9286 46.1094 35.2922 48.8035 43.9867H49.5137L53.1058 38.3944C49.2606 32.4267 41.5458 28.2713 33.4147 28.3693C32.3942 28.3774 31.39 28.4836 30.3941 28.6305C34.0433 19.4544 45.2848 13.9683 59.5307 13.805C74.144 13.6336 85.0345 18.5727 88.8878 27.3733C88.8144 27.3733 88.749 27.3651 88.6756 27.3651C80.9771 27.4549 75.3114 31.0062 71.254 35.2269C71.1723 35.3085 71.0989 35.3902 71.0172 35.4718C70.7233 35.7902 70.4294 36.1004 70.1519 36.4188C63.6126 43.6193 61.1717 51.3423 60.2573 56.4691C60.2165 56.4691 60.1757 56.4691 60.1349 56.4691C60.0206 56.4691 59.9063 56.461 59.792 56.461C59.7348 56.461 59.6858 56.461 59.6368 56.461C41.5785 56.559 29.2838 48.8278 29.1286 35.6024C29.1042 33.7982 29.3491 32.1001 29.7818 30.4919L29.7899 30.5ZM27.7653 31.1286C27.5775 32.5165 27.4632 33.9288 27.4796 35.3902C27.602 46.1501 33.7331 55.1874 43.8072 59.7918C33.6922 64.4452 27.9286 73.5642 28.051 84.6507C28.0592 85.5977 28.1245 86.5283 28.2306 87.4509C18.6708 84.0384 13.4133 72.307 13.2582 59.0081C13.1112 46.4358 18.5565 34.6718 27.7653 31.1205V31.1286Z" fill="#8C5F31"/>
<path d="M22.7689 97.8597L18.2788 102.456L19.1687 103.321L23.7241 98.6598C29.4877 111.836 43.3662 119.992 60.2245 119.992H60.2408C78.1033 119.992 92.243 111.15 97.2148 96.8964C97.2556 96.8801 97.2964 96.8637 97.3372 96.8474L102.97 102.35L103.836 101.46L98.57 96.3168C111.828 90.5939 120 76.7807 120 59.7592C120 41.8559 111.64 28.2142 97.5985 23.0465L102.856 17.6665L101.966 16.8011L96.7413 22.1566C91.1246 8.87407 76.1929 0 59.1877 0H59.1714C41.0967 0 26.908 8.54752 22.4015 21.9117L18.1727 17.7808L17.3073 18.6707L21.9688 23.2261C21.9607 23.2669 21.9362 23.3077 21.928 23.3485C8.59649 29.0305 0 43.7091 0 60.8286C0 73.1152 3.86148 83.7363 10.8579 90.7409C14.2703 94.1534 18.2869 96.5209 22.7689 97.8679V97.8597ZM22.6791 24.3608L22.9648 24.2465L23.0465 23.9526C26.7202 10.1558 40.9008 1.23273 59.1714 1.23273H59.1877C76.095 1.23273 90.8796 10.1966 95.9902 23.5363L96.0963 23.8057L96.3739 23.9037C110.399 28.6468 118.767 42.0518 118.767 59.751C118.767 76.9358 110.244 90.7572 96.5127 95.8351L96.2351 95.9412L96.1372 96.2188C91.4266 110.114 77.6787 118.751 60.249 118.751H60.2327C43.5213 118.751 29.8306 110.546 24.4996 97.3454L24.3853 97.0597L24.0833 96.978C19.4054 95.7535 15.2582 93.3615 11.7477 89.851C4.97992 83.0832 1.24906 72.7723 1.24906 60.8205C1.24906 44.0765 9.66595 29.7653 22.6954 24.369L22.6791 24.3608Z" fill="#8C5F31"/>
</svg>
