<svg width="32" height="33" viewBox="0 0 32 33" fill="none" xmlns="http://www.w3.org/2000/svg">
<circle cx="16" cy="16.623" r="16" fill="#C59F78"/>
<g clip-path="url(#clip0_159_4694)">
<path d="M13 16.2461C13 17.0417 13.3161 17.8048 13.8787 18.3674C14.4413 18.93 15.2044 19.2461 16 19.2461C16.7956 19.2461 17.5587 18.93 18.1213 18.3674C18.6839 17.8048 19 17.0417 19 16.2461C19 15.4504 18.6839 14.6874 18.1213 14.1248C17.5587 13.5622 16.7956 13.2461 16 13.2461C15.2044 13.2461 14.4413 13.5622 13.8787 14.1248C13.3161 14.6874 13 15.4504 13 16.2461Z" stroke="white" stroke-width="1.6" stroke-linecap="round" stroke-linejoin="round"/>
<path d="M21.657 21.9028L17.414 26.1458C17.039 26.5204 16.5306 26.7309 16.0005 26.7309C15.4704 26.7309 14.962 26.5204 14.587 26.1458L10.343 21.9028C9.22422 20.784 8.46234 19.3585 8.15369 17.8067C7.84504 16.2548 8.00349 14.6463 8.60901 13.1845C9.21452 11.7227 10.2399 10.4733 11.5555 9.59431C12.8711 8.71528 14.4178 8.24609 16 8.24609C17.5822 8.24609 19.1289 8.71528 20.4445 9.59431C21.7601 10.4733 22.7855 11.7227 23.391 13.1845C23.9965 14.6463 24.155 16.2548 23.8463 17.8067C23.5377 19.3585 22.7758 20.784 21.657 21.9028Z" stroke="white" stroke-width="1.6" stroke-linecap="round" stroke-linejoin="round"/>
</g>
<defs>
<clipPath id="clip0_159_4694">
<rect width="24" height="24" fill="white" transform="translate(4 5.24609)"/>
</clipPath>
</defs>
</svg>
