<svg width="32" height="32" viewBox="0 0 32 32" fill="none" xmlns="http://www.w3.org/2000/svg">
<circle cx="16" cy="16" r="16" fill="#C59F78"/>
<g clip-path="url(#clip0_159_4706)">
<path d="M7 15.623C7 16.8049 7.23279 17.9753 7.68508 19.0672C8.13738 20.1591 8.80031 21.1513 9.63604 21.987C10.4718 22.8227 11.4639 23.4857 12.5558 23.938C13.6478 24.3903 14.8181 24.623 16 24.623C17.1819 24.623 18.3522 24.3903 19.4442 23.938C20.5361 23.4857 21.5282 22.8227 22.364 21.987C23.1997 21.1513 23.8626 20.1591 24.3149 19.0672C24.7672 17.9753 25 16.8049 25 15.623C25 14.4412 24.7672 13.2708 24.3149 12.1789C23.8626 11.087 23.1997 10.0948 22.364 9.25909C21.5282 8.42336 20.5361 7.76042 19.4442 7.30813C18.3522 6.85584 17.1819 6.62305 16 6.62305C14.8181 6.62305 13.6478 6.85584 12.5558 7.30813C11.4639 7.76042 10.4718 8.42336 9.63604 9.25909C8.80031 10.0948 8.13738 11.087 7.68508 12.1789C7.23279 13.2708 7 14.4412 7 15.623Z" stroke="white" stroke-width="1.6" stroke-linecap="round" stroke-linejoin="round"/>
<path d="M16 15.623L19 17.623" stroke="white" stroke-width="1.6" stroke-linecap="round" stroke-linejoin="round"/>
<path d="M16 10.623V15.623" stroke="white" stroke-width="1.6" stroke-linecap="round" stroke-linejoin="round"/>
</g>
<defs>
<clipPath id="clip0_159_4706">
<rect width="24" height="24" fill="white" transform="translate(4 3.62305)"/>
</clipPath>
</defs>
</svg>
