<svg width="60" height="60" viewBox="0 0 60 60" fill="none" xmlns="http://www.w3.org/2000/svg">
<circle cx="30" cy="30" r="30" fill="#8C5F31"/>
<path d="M31.713 13.3333C33.588 13.3383 34.5396 13.3483 35.3613 13.3717L35.6846 13.3833C36.058 13.3967 36.4263 13.4133 36.8713 13.4333C38.6446 13.5167 39.8546 13.7967 40.9163 14.2083C42.0163 14.6317 42.943 15.205 43.8696 16.13C44.7175 16.9629 45.3733 17.9708 45.7913 19.0833C46.203 20.145 46.483 21.355 46.5663 23.13C46.5863 23.5733 46.603 23.9417 46.6163 24.3167L46.6263 24.64C46.6513 25.46 46.6613 26.4117 46.6646 28.2867L46.6663 29.53V31.7133C46.6704 32.929 46.6576 34.1447 46.628 35.36L46.618 35.6833C46.6046 36.0583 46.588 36.4267 46.568 36.87C46.4846 38.645 46.2013 39.8533 45.7913 40.9167C45.3733 42.0292 44.7175 43.0371 43.8696 43.87C43.0368 44.7178 42.0289 45.3736 40.9163 45.7917C39.8546 46.2033 38.6446 46.4833 36.8713 46.5667L35.6846 46.6167L35.3613 46.6267C34.5396 46.65 33.588 46.6617 31.713 46.665L30.4696 46.6667H28.288C27.0717 46.671 25.8555 46.6582 24.6396 46.6283L24.3163 46.6183C23.9207 46.6034 23.5251 46.5861 23.1296 46.5667C21.3563 46.4833 20.1463 46.2033 19.083 45.7917C17.971 45.3734 16.9637 44.7176 16.1313 43.87C15.2829 43.0373 14.6265 42.0294 14.208 40.9167C13.7963 39.855 13.5163 38.645 13.433 36.87L13.383 35.6833L13.3746 35.36C13.3439 34.1447 13.33 32.929 13.333 31.7133V28.2867C13.3284 27.071 13.3406 25.8553 13.3696 24.64L13.3813 24.3167C13.3946 23.9417 13.4113 23.5733 13.4313 23.13C13.5146 21.355 13.7946 20.1467 14.2063 19.0833C14.6258 17.9703 15.2834 16.9624 16.133 16.13C16.9649 15.2826 17.9716 14.6268 19.083 14.2083C20.1463 13.7967 21.3546 13.5167 23.1296 13.4333C23.573 13.4133 23.943 13.3967 24.3163 13.3833L24.6396 13.3733C25.855 13.3437 27.0706 13.331 28.2863 13.335L31.713 13.3333ZM29.9996 21.6667C27.7895 21.6667 25.6699 22.5447 24.1071 24.1075C22.5443 25.6703 21.6663 27.7899 21.6663 30C21.6663 32.2101 22.5443 34.3298 24.1071 35.8926C25.6699 37.4554 27.7895 38.3333 29.9996 38.3333C32.2098 38.3333 34.3294 37.4554 35.8922 35.8926C37.455 34.3298 38.333 32.2101 38.333 30C38.333 27.7899 37.455 25.6703 35.8922 24.1075C34.3294 22.5447 32.2098 21.6667 29.9996 21.6667ZM29.9996 25C30.6563 24.9999 31.3065 25.1291 31.9131 25.3803C32.5198 25.6315 33.0711 25.9997 33.5354 26.4639C33.9998 26.9281 34.3682 27.4792 34.6196 28.0858C34.8709 28.6924 35.0004 29.3426 35.0005 29.9992C35.0006 30.6558 34.8714 31.306 34.6202 31.9127C34.369 32.5193 34.0008 33.0706 33.5366 33.535C33.0724 33.9993 32.5213 34.3677 31.9147 34.6191C31.3081 34.8705 30.6579 34.9999 30.0013 35C28.6752 35 27.4035 34.4732 26.4658 33.5355C25.5281 32.5979 25.0013 31.3261 25.0013 30C25.0013 28.6739 25.5281 27.4022 26.4658 26.4645C27.4035 25.5268 28.6752 25 30.0013 25M38.7513 19.1667C38.1988 19.1667 37.6689 19.3862 37.2782 19.7769C36.8875 20.1676 36.668 20.6975 36.668 21.25C36.668 21.8025 36.8875 22.3324 37.2782 22.7231C37.6689 23.1138 38.1988 23.3333 38.7513 23.3333C39.3038 23.3333 39.8337 23.1138 40.2245 22.7231C40.6152 22.3324 40.8346 21.8025 40.8346 21.25C40.8346 20.6975 40.6152 20.1676 40.2245 19.7769C39.8337 19.3862 39.3038 19.1667 38.7513 19.1667Z" fill="white"/>
</svg>
