<svg width="60" height="60" viewBox="0 0 60 60" fill="none" xmlns="http://www.w3.org/2000/svg">
<circle cx="30" cy="30" r="30" fill="#8C5F31"/>
<path d="M35.9112 38.9445C36.2562 36.126 34.4412 34.329 29.6487 32.799C27.3267 32.007 26.2332 30.969 26.2587 29.5425C26.3562 27.9585 27.8307 26.805 29.7867 26.7675C31.3271 26.7841 32.8295 27.2479 34.1112 28.1025C34.2852 28.2105 34.4067 28.1925 34.5057 28.0425C34.6407 27.8265 34.9782 27.303 35.0907 27.1125C35.1672 26.9925 35.1822 26.8335 34.9887 26.6925C34.7112 26.487 33.9327 26.07 33.5142 25.8945C32.3223 25.3901 31.0419 25.128 29.7477 25.1235C26.8827 25.1355 24.6282 26.946 24.4377 29.3625C24.3157 31.1085 25.1807 32.522 27.0327 33.603C27.4272 33.831 29.5527 34.677 30.3987 34.941C33.0597 35.769 34.4412 37.254 34.1157 38.9865C33.8202 40.557 32.1672 41.5725 29.8887 41.6025C28.0842 41.5335 26.4582 40.797 25.1982 39.8175L24.9867 39.6525C24.8307 39.5325 24.6597 39.54 24.5562 39.6975C24.4812 39.813 23.9922 40.518 23.8692 40.7025C23.7537 40.8645 23.8167 40.9545 23.9367 41.0535C24.4617 41.493 25.1622 41.973 25.6377 42.216C26.9548 42.8872 28.4037 43.2595 29.8812 43.3065C30.9449 43.3571 32.0069 43.1759 32.9937 42.7755C34.6362 42.078 35.6982 40.6845 35.9112 38.9445ZM29.9997 14.1015C26.8977 14.1015 24.3687 17.0265 24.2502 20.6865H35.7477C35.6262 17.025 33.0987 14.1 29.9997 14.1M41.7762 47.997L41.6562 47.9985L17.9802 47.9955C16.3692 47.9355 15.1857 46.6305 15.0237 45.009L15.0087 44.7165L13.9482 21.4275C13.9412 21.3339 13.9534 21.2399 13.984 21.1513C14.0146 21.0626 14.063 20.9811 14.1262 20.9117C14.1894 20.8424 14.266 20.7866 14.3515 20.7479C14.4369 20.7092 14.5294 20.6883 14.6232 20.6865H22.0857C22.2672 15.852 25.7397 12 29.9997 12C34.2597 12 37.7292 15.8535 37.9122 20.685H45.3642C45.4575 20.6853 45.5498 20.7045 45.6355 20.7415C45.7212 20.7785 45.7985 20.8325 45.8627 20.9002C45.927 20.968 45.9768 21.048 46.0092 21.1355C46.0416 21.2231 46.0559 21.3163 46.0512 21.4095L44.8917 44.7915L44.8812 44.988C44.7402 46.629 43.4127 47.9535 41.7762 47.997Z" fill="white"/>
</svg>
