<svg width="60" height="60" viewBox="0 0 60 60" fill="none" xmlns="http://www.w3.org/2000/svg">
<circle cx="30" cy="30" r="30" fill="#8C5F31"/>
<path d="M16.7507 44.2542C18.4136 49.2709 23.4692 52.7628 30.3999 52.6814C37.6279 52.5965 42.4819 48.9065 43.7873 43.5961C49.0057 42.3755 53.2512 36.906 53.1628 29.3702C53.0779 21.9654 49.2463 16.4003 43.4123 15.8979C41.8733 10.6972 36.754 7.0355 29.6641 7.11687C22.2557 7.20178 17.338 11.0722 16.1811 16.5984C11.0512 17.911 6.9154 23.3381 7.00031 30.7819C7.08522 38.1867 10.9168 43.7518 16.7507 44.2542ZM16.8746 40.7799C16.8073 35.1582 22.1531 31.6133 29.466 31.3515C28.9565 35.9189 25.9351 39.1808 25.3726 39.7504C23.7275 41.2116 21.534 42.3119 18.8876 42.3437C18.226 42.3508 17.6034 42.2729 17.009 42.1314C16.9347 41.6963 16.8816 41.247 16.8746 40.7764V40.7799ZM43.0267 42.9876C42.5915 43.076 42.1458 43.1397 41.6788 43.1468C38.2045 43.1857 36.1844 40.8613 35.0169 37.0935H34.7091L33.1524 39.5169C34.8188 42.1031 38.1621 43.9039 41.6858 43.8615C42.029 43.8579 42.3687 43.8296 42.7083 43.7907C40.9641 47.5267 36.2339 49.7556 30.2655 49.8228C24.1343 49.8936 19.5209 47.8876 17.7166 44.3002C17.7237 44.3002 17.7307 44.3002 17.7343 44.3002C21.0705 44.2612 23.5258 42.7223 25.2842 40.8932C25.3195 40.8578 25.3514 40.8224 25.3867 40.7835C25.5141 40.6455 25.6415 40.5111 25.7618 40.3731C28.7478 37.0899 29.7667 33.5414 30.1134 31.3302C30.1275 31.3302 30.1381 31.3302 30.1523 31.3302C30.17 31.3302 30.1841 31.3302 30.1983 31.3302C38.0347 31.2842 43.3699 34.6311 43.4371 40.3696C43.4477 41.3036 43.2956 42.1739 43.0232 42.9876H43.0267ZM43.851 18.2259C48.0434 19.6693 50.3537 24.778 50.4209 30.5767C50.4846 36.0958 48.0647 41.2576 43.9749 42.7223C44.0987 41.9935 44.1659 41.2399 44.1553 40.4615C44.1022 35.7986 41.4453 31.8821 37.0795 29.8868C41.463 27.8702 43.9607 23.9183 43.9076 19.1139C43.9076 18.8132 43.8758 18.5195 43.851 18.2259ZM43.1894 19.0184C43.2531 24.6047 37.9817 28.1355 30.7467 28.4433C31.3693 24.0634 34.2456 20.9571 34.794 20.4017C36.4391 18.9405 38.6326 17.8402 41.279 17.8084C41.9264 17.8013 42.5385 17.8791 43.1187 18.0136C43.1611 18.3426 43.1859 18.6752 43.1894 19.0219V19.0184ZM16.9099 17.2176C17.4159 17.0973 17.9395 17.0159 18.4878 17.0088C21.9621 16.9699 23.9822 19.2943 25.1497 23.0622H25.4575L27.0142 20.6387C25.3478 18.0525 22.0045 16.2517 18.4808 16.2942C18.0385 16.2977 17.6034 16.3437 17.1718 16.4074C18.7532 12.4308 23.6249 10.0533 29.7985 9.98256C36.1313 9.90827 40.8509 12.0487 42.5208 15.8625C42.4889 15.8625 42.4606 15.859 42.4288 15.859C39.0926 15.8979 36.6373 17.4369 34.8789 19.266C34.8435 19.3014 34.8117 19.3368 34.7763 19.3721C34.649 19.5101 34.5216 19.6446 34.4013 19.7825C31.5675 22.903 30.5096 26.2498 30.1134 28.4716C30.0957 28.4716 30.078 28.4716 30.0603 28.4716C30.0108 28.4716 29.9612 28.4681 29.9117 28.4681C29.887 28.4681 29.8657 28.4681 29.8445 28.4681C22.0187 28.5105 16.6906 25.1601 16.6234 19.4287C16.6128 18.6469 16.7189 17.911 16.9064 17.214L16.9099 17.2176ZM16.0326 17.49C15.9512 18.0914 15.9017 18.7035 15.9087 19.3368C15.9618 23.9997 18.6188 27.9162 22.9845 29.9115C18.6011 31.9281 16.1033 35.88 16.1564 40.6844C16.1599 41.0948 16.1882 41.4981 16.2342 41.8979C12.0913 40.4191 9.81293 35.3351 9.74571 29.5719C9.68203 24.1235 12.0418 19.0254 16.0326 17.4864V17.49Z" fill="white"/>
<path d="M13.8672 46.4088L11.9213 48.4006L12.307 48.7756L14.2811 46.7555C16.7789 52.4656 22.7933 56 30.0991 56H30.1061C37.8471 56 43.9747 52.1685 46.1293 45.9913C46.147 45.9842 46.1646 45.9771 46.1823 45.9701L48.6235 48.3546L48.9985 47.969L46.7166 45.7401C52.4621 43.26 56.0035 37.2739 56.0035 29.8974C56.0035 22.1388 52.3807 16.227 46.2955 13.9875L48.574 11.656L48.1883 11.281L45.9241 13.6018C43.49 7.84569 37.0192 4 29.6497 4H29.6427C21.8098 4 15.6609 7.70418 13.708 13.4957L11.8754 11.7055L11.5003 12.0912L13.5205 14.0653C13.5169 14.083 13.5063 14.1007 13.5028 14.1184C7.7254 16.5808 4 22.9419 4 30.3609C4 35.6854 5.67342 40.2882 8.7054 43.3237C10.1842 44.8026 11.9249 45.8285 13.8672 46.4123V46.4088ZM13.8283 14.5571L13.9521 14.5076L13.9875 14.3802C15.5795 8.40114 21.7249 4.53422 29.6427 4.53422H29.6497C36.9767 4.53422 43.3839 8.41883 45.5986 14.1998L45.6446 14.3165L45.7649 14.359C51.843 16.4145 55.4693 22.2237 55.4693 29.8939C55.4693 37.3411 51.7758 43.3308 45.825 45.5314L45.7047 45.5774L45.6623 45.6976C43.6209 51.7191 37.6631 55.4622 30.1097 55.4622H30.1026C22.8605 55.4622 16.9275 51.9067 14.6172 46.1859L14.5677 46.062L14.4368 46.0267C12.4096 45.496 10.6123 44.4594 9.09103 42.9381C6.15811 40.0052 4.5413 35.5368 4.5413 30.3573C4.5413 23.1011 8.18886 16.8992 13.8353 14.5606L13.8283 14.5571Z" fill="white"/>
</svg>
