<svg width="60" height="60" viewBox="0 0 60 60" fill="none" xmlns="http://www.w3.org/2000/svg">
<circle cx="30" cy="30" r="30" fill="#8C5F31"/>
<path d="M37.6669 19.7C36.5279 18.3992 35.9001 16.729 35.9003 15H30.7503V35.6667C30.7114 36.7853 30.2395 37.8451 29.4341 38.6225C28.6288 39.3999 27.5529 39.834 26.4336 39.8333C24.0669 39.8333 22.1003 37.9 22.1003 35.5C22.1003 32.6333 24.8669 30.4833 27.7169 31.3667V26.1C21.9669 25.3333 16.9336 29.8 16.9336 35.5C16.9336 41.05 21.5336 45 26.4169 45C31.6503 45 35.9003 40.75 35.9003 35.5V25.0167C37.9886 26.5164 40.4959 27.3211 43.0669 27.3167V22.1667C43.0669 22.1667 39.9336 22.3167 37.6669 19.7Z" fill="white"/>
</svg>
