<svg width="60" height="60" viewBox="0 0 60 60" fill="none" xmlns="http://www.w3.org/2000/svg">
<circle cx="30" cy="30" r="30" fill="#8C5F31"/>
<path d="M46.523 29.1717C46.3159 30.4588 45.8849 31.6998 45.2497 32.8383C44.9513 33.3783 43.4897 35.435 43.0413 35.9783C40.578 38.9583 36.453 42.3967 29.5547 45.74C29.4083 45.8112 29.2455 45.8418 29.0832 45.8286C28.921 45.8154 28.7653 45.7588 28.6324 45.6647C28.4995 45.5707 28.3944 45.4427 28.3279 45.2941C28.2615 45.1455 28.2362 44.9817 28.2547 44.82L28.6047 41.6783C28.6183 41.5593 28.6083 41.4388 28.5752 41.3236C28.5421 41.2085 28.4865 41.101 28.4117 41.0075C28.3368 40.9139 28.2443 40.8361 28.1392 40.7784C28.0342 40.7208 27.9188 40.6845 27.7997 40.6717C19.6347 39.8133 13.333 34.2333 13.333 27.4767C13.333 20.1267 20.793 14.1667 29.9947 14.1667C38.938 14.1667 46.2347 19.795 46.6397 26.8583C46.6513 27.0633 46.683 27.7183 46.6563 28.1583C46.638 28.425 46.5997 28.7667 46.523 29.1717ZM20.833 30.1717V24.5667C20.8381 24.4515 20.8198 24.3366 20.7793 24.2287C20.7387 24.1208 20.6768 24.0223 20.5971 23.939C20.5174 23.8558 20.4217 23.7895 20.3158 23.7442C20.2098 23.699 20.0957 23.6756 19.9805 23.6756C19.8653 23.6756 19.7512 23.699 19.6453 23.7442C19.5393 23.7895 19.4436 23.8558 19.3639 23.939C19.2843 24.0223 19.2223 24.1208 19.1817 24.2287C19.1412 24.3366 19.1229 24.4515 19.128 24.5667V31.0283C19.128 31.5017 19.5113 31.885 19.9813 31.885H23.3897C23.6167 31.885 23.8343 31.7948 23.9948 31.6343C24.1553 31.4738 24.2455 31.2561 24.2455 31.0292C24.2455 30.8022 24.1553 30.5845 23.9948 30.424C23.8343 30.2635 23.6167 30.1733 23.3897 30.1733H20.833V30.1717ZM26.0897 31.885C26.1774 31.885 26.2642 31.8677 26.3452 31.8341C26.4262 31.8005 26.4997 31.7512 26.5617 31.6891C26.6236 31.6271 26.6727 31.5534 26.7061 31.4723C26.7395 31.3912 26.7566 31.3043 26.7563 31.2167V24.38C26.7568 24.2922 26.7399 24.2051 26.7066 24.1238C26.6732 24.0426 26.6242 23.9687 26.5623 23.9064C26.5003 23.8442 26.4267 23.7948 26.3456 23.7611C26.2645 23.7273 26.1775 23.71 26.0897 23.71H25.718C25.6302 23.71 25.5432 23.7273 25.4621 23.7611C25.381 23.7948 25.3074 23.8442 25.2454 23.9064C25.1835 23.9687 25.1344 24.0426 25.1011 24.1238C25.0678 24.2051 25.0509 24.2922 25.0513 24.38V31.2167C25.0513 31.3935 25.1216 31.563 25.2466 31.6881C25.3716 31.8131 25.5412 31.8833 25.718 31.8833L26.0897 31.885ZM32.978 24.5667V28.515C32.978 28.515 29.5747 24.055 29.5213 23.9983C29.439 23.9034 29.3363 23.8283 29.2208 23.7786C29.1054 23.729 28.9802 23.7061 28.8547 23.7117C28.63 23.7266 28.4195 23.8273 28.2669 23.9929C28.1143 24.1585 28.0312 24.3765 28.0347 24.6017V31.0283C28.0296 31.1434 28.0479 31.2584 28.0884 31.3663C28.129 31.4741 28.1909 31.5727 28.2706 31.6559C28.3503 31.7392 28.446 31.8055 28.5519 31.8507C28.6579 31.896 28.7719 31.9194 28.8872 31.9194C29.0024 31.9194 29.1165 31.896 29.2224 31.8507C29.3284 31.8055 29.4241 31.7392 29.5038 31.6559C29.5834 31.5727 29.6454 31.4741 29.6859 31.3663C29.7265 31.2584 29.7448 31.1434 29.7397 31.0283V27.105C29.7397 27.105 33.1947 31.6017 33.2463 31.65C33.3963 31.7933 33.598 31.8833 33.823 31.8833C34.2963 31.8883 34.683 31.4683 34.683 30.9933V24.5667C34.6881 24.4515 34.6698 24.3366 34.6293 24.2287C34.5887 24.1208 34.5268 24.0223 34.4471 23.939C34.3674 23.8558 34.2717 23.7895 34.1658 23.7442C34.0598 23.699 33.9457 23.6756 33.8305 23.6756C33.7153 23.6756 33.6012 23.699 33.4953 23.7442C33.3893 23.7895 33.2936 23.8558 33.2139 23.939C33.1343 24.0223 33.0723 24.1208 33.0317 24.2287C32.9912 24.3366 32.9729 24.4515 32.978 24.5667ZM41.0747 24.5667C41.0756 24.4542 41.0541 24.3427 41.0116 24.2386C40.9691 24.1344 40.9063 24.0398 40.8269 23.9601C40.7475 23.8804 40.6531 23.8173 40.5492 23.7744C40.4452 23.7314 40.3338 23.7095 40.2213 23.71H36.813C36.7007 23.7098 36.5894 23.7318 36.4857 23.7748C36.3819 23.8179 36.2877 23.8811 36.2085 23.9607C36.1293 24.0404 36.0667 24.1349 36.0243 24.2389C35.9818 24.3429 35.9605 24.4543 35.9613 24.5667V31.0283C35.9613 31.5017 36.343 31.885 36.813 31.885H40.2213C40.4483 31.885 40.666 31.7948 40.8265 31.6343C40.987 31.4738 41.0772 31.2561 41.0772 31.0292C41.0772 30.8022 40.987 30.5845 40.8265 30.424C40.666 30.2635 40.4483 30.1733 40.2213 30.1733H37.6663V28.6533H40.223C40.45 28.6533 40.6677 28.5632 40.8282 28.4027C40.9887 28.2422 41.0788 28.0245 41.0788 27.7975C41.0788 27.5705 40.9887 27.3528 40.8282 27.1923C40.6677 27.0318 40.45 26.9417 40.223 26.9417H37.6663V25.4217H40.223C40.6947 25.4217 41.0747 25.0383 41.0747 24.5667Z" fill="white"/>
</svg>
