<svg width="244" height="62" viewBox="0 0 244 62" fill="none" xmlns="http://www.w3.org/2000/svg">
<path d="M206.953 15.872C208.241 15.872 209.279 14.8416 209.279 13.5632C209.279 12.2849 208.241 11.2545 206.953 11.2545C205.664 11.2545 204.584 12.2849 204.584 13.5632C204.584 14.8416 205.622 15.872 206.953 15.872Z" fill="#8C5F31"/>
<path d="M93.3254 19.2938C87.5081 19.2938 83.1845 23.8287 83.1845 30.6753C83.1845 30.8495 83.1994 31.0118 83.2024 31.1831H83.1905C83.1905 36.0958 79.9113 38.3662 79.2686 38.7677C78.1766 39.4114 76.8822 39.8306 75.4152 39.8306C70.928 39.8306 68.5594 35.2131 68.5594 29.4796C68.5594 24.4074 70.8447 19.8725 74.835 19.8725C77.6201 19.8725 79.1169 22.1813 79.9471 25.2754H80.197L81.8604 22.8013C80.447 20.7818 77.7868 19.2968 74.835 19.2968C69.4759 19.2968 65.0273 24.121 65.0273 30.9233C65.0273 37.0672 68.3928 41.8914 73.9214 41.8914C76.9655 41.8914 79.099 40.4447 80.6047 38.7176C80.6047 38.7176 80.6225 38.6939 80.6344 38.6821C81.1879 38.0415 81.655 37.3683 82.0508 36.7129C82.7441 35.588 83.1934 34.5547 83.4851 33.6837C84.5235 38.8179 88.252 41.8914 93.2421 41.8914C99.0177 41.8914 103.341 37.3565 103.341 30.5099C103.341 23.6634 99.1844 19.2938 93.3254 19.2938ZM93.3254 41.3127C89.1298 41.3127 86.8415 36.5712 86.8415 30.5926C86.8415 24.614 89.0435 19.8725 93.2421 19.8725C97.4407 19.8725 99.6843 24.614 99.6843 30.5926C99.6843 36.5712 97.524 41.3127 93.3254 41.3127Z" fill="#8C5F31"/>
<path d="M143.293 19.2938C137.475 19.2938 133.152 23.8287 133.152 30.6752C133.152 32.0127 133.31 33.2497 133.604 34.3805C131.979 38.4813 128.73 39.7213 128.641 39.7538C128.123 39.928 127.596 40.0372 127.067 40.0372C124.906 40.0372 123.785 38.7589 123.785 36.3261V21.3162H134.098L134.681 19.7898H123.785V14.3899H123.535C122.33 18.101 120.874 19.7514 118.839 20.6165L118.256 20.8645V21.3162H120.416V33.3944C119.065 37.9558 115.706 39.5058 115.179 39.7243C114.635 39.9162 114.078 40.0372 113.519 40.0372C111.358 40.0372 110.237 38.7589 110.237 36.3261V21.3162H116.444L117.027 19.7898H110.24V14.3899H109.99C108.785 18.101 107.329 19.7514 105.294 20.6165L104.711 20.8645V21.3162H106.871V36.6951C106.871 40.1996 108.66 41.8913 111.736 41.8913C113.093 41.8913 114.578 41.3392 115.983 40.3266C118.336 38.8386 119.762 36.1194 120.419 34.5665V36.6981C120.419 40.2026 122.208 41.8943 125.281 41.8943C126.671 41.8943 128.194 41.3097 129.626 40.2498C131.726 38.8681 133.071 36.515 133.777 34.9591C135.14 39.3257 138.648 41.8972 143.209 41.8972C148.985 41.8972 153.309 37.3624 153.309 30.5158C153.309 23.6692 149.152 19.2997 143.293 19.2997V19.2938ZM143.293 41.3127C139.097 41.3127 136.809 36.5711 136.809 30.5926C136.809 24.614 139.011 19.8725 143.209 19.8725C147.408 19.8725 149.652 24.614 149.652 30.5926C149.652 36.5711 147.491 41.3127 143.293 41.3127Z" fill="#8C5F31"/>
<path d="M200.472 37.1085V9.15238H200.305L194.985 10.4721V10.7201C196.398 11.0921 197.103 11.9571 197.103 14.5966V29.2581C195.431 35.9393 191.947 38.3957 191.343 38.7766C190.254 39.4143 188.965 39.8306 187.507 39.8306C183.02 39.8306 180.651 35.2131 180.651 29.4795C180.651 24.4073 182.937 19.8725 186.927 19.8725C189.712 19.8725 191.209 22.1812 192.039 25.2753H192.289L193.952 22.8012C192.539 20.7818 189.879 19.2968 186.927 19.2968C181.568 19.2968 177.119 24.121 177.119 30.9232C177.119 32.7596 177.426 34.472 177.994 35.9807C176.396 37.6753 173.209 40.6307 173.209 37.203C173.209 37.1705 173.209 37.1439 173.209 37.1114V25.73C173.209 21.5642 171.174 19.2968 167.931 19.2968C165.145 19.2968 162.527 21.1538 160.325 23.4212V19.3794H160.158L154.838 21.0298V21.2778C156.251 21.6498 156.957 22.5149 156.957 25.1543V37.1114C156.957 39.7509 156.832 41.1532 155.127 41.1532V41.4012H162.149V41.1532C160.444 41.1532 160.319 39.7509 160.319 37.1114V23.8346C162.107 22.4322 164.101 21.5258 165.928 21.5258C168.838 21.5258 169.835 23.5039 169.835 26.6393V37.1144C169.835 37.1469 169.835 37.1734 169.835 37.2059C169.85 37.7964 170.019 41.3186 172.082 41.3186C172.082 41.3186 174.908 41.7614 178.348 36.8339C179.794 39.8955 182.449 41.8972 186.004 41.8972C188.266 41.8972 190.022 41.0971 191.393 39.9782C191.423 39.9575 191.45 39.928 191.48 39.9044C191.599 39.804 191.718 39.7036 191.831 39.6003C194.491 37.2827 196.184 34.0675 197.095 31.9034V37.1144C197.095 39.7538 196.97 41.1562 195.265 41.1562V41.4042H202.287V41.1562C200.582 41.1562 200.457 39.7538 200.457 37.1144L200.472 37.1085Z" fill="#8C5F31"/>
<path d="M209.075 37.1085V19.3765H208.908L203.588 21.0269V21.2749C205.001 21.6469 205.707 22.5119 205.707 25.1513V37.1085C205.707 39.7479 205.582 41.1503 203.877 41.1503V41.3983H210.899V41.1503C209.194 41.1503 209.072 39.7479 209.072 37.1085H209.075Z" fill="#8C5F31"/>
<path d="M229.165 36.6125L224.303 29.2315L226.38 26.1817C229.249 21.9746 231.117 20.2858 232.614 20.0378V19.7898H229.591L227.612 22.9518C227.178 23.7726 226.538 24.738 225.797 25.8511L223.884 28.6558L217.977 19.7898H213.037V20.0378C214.409 20.2858 216.111 22.7156 217.358 24.5727L221.762 31.2096L219.185 35.0034C216.317 39.2076 214.448 40.8993 212.951 41.1473V41.3953H218.81V41.1473C217.897 41.0647 217.397 40.6543 217.397 39.993C217.397 38.9212 218.394 37.3949 219.765 35.3341L222.176 31.8296L228.576 41.3953H233.48V41.1473C232.108 40.8993 230.403 38.5079 229.156 36.6125H229.165Z" fill="#8C5F31"/>
<path d="M21.1374 43.0428C22.5359 47.2292 26.7881 50.1432 32.6173 50.0753C38.6965 50.0045 42.779 46.9252 43.877 42.4936C48.266 41.4751 51.8368 36.9107 51.7624 30.6221C51.691 24.4428 48.4684 19.7987 43.5616 19.3794C42.2672 15.0394 37.9615 11.9837 31.9984 12.0516C25.7675 12.1225 21.6314 15.3524 20.6583 19.964C16.3437 21.0593 12.8652 25.5883 12.9366 31.8001C13.008 37.9794 16.2306 42.6235 21.1374 43.0428ZM21.2416 40.1435C21.185 35.4522 25.6812 32.4939 31.8318 32.2754C31.4033 36.087 28.8621 38.8091 28.389 39.2844C27.0053 40.5037 25.1604 41.4219 22.9347 41.4485C22.3782 41.4544 21.8545 41.3894 21.3546 41.2713C21.2921 40.9082 21.2475 40.5332 21.2416 40.1406V40.1435ZM43.2373 41.9858C42.8713 42.0596 42.4963 42.1128 42.1036 42.1187C39.1815 42.1512 37.4824 40.2114 36.5005 37.0672H36.2416L34.9323 39.0895C36.3338 41.2477 39.1458 42.7505 42.1095 42.7151C42.3981 42.7121 42.6838 42.6885 42.9695 42.656C41.5025 45.7737 37.5241 47.6337 32.5042 47.6898C27.3475 47.7489 23.4673 46.0749 21.9497 43.0812C21.9557 43.0812 21.9617 43.0812 21.9646 43.0812C24.7706 43.0487 26.8357 41.7644 28.3146 40.238C28.3443 40.2085 28.3711 40.179 28.4009 40.1465C28.508 40.0313 28.6151 39.9192 28.7163 39.804C31.2277 37.0642 32.0847 34.103 32.3763 32.2577C32.3882 32.2577 32.3971 32.2577 32.409 32.2577C32.4239 32.2577 32.4358 32.2577 32.4477 32.2577C39.0387 32.2193 43.5259 35.0123 43.5824 39.8011C43.5914 40.5805 43.4634 41.3068 43.2343 41.9858H43.2373ZM43.9306 21.3221C47.4567 22.5267 49.3998 26.7899 49.4563 31.6289C49.5099 36.2346 47.4745 40.5421 44.0347 41.7644C44.1389 41.1562 44.1954 40.5273 44.1865 39.8778C44.1418 35.9866 41.9072 32.7183 38.2353 31.0532C41.922 29.3703 44.0228 26.0725 43.9782 22.0632C43.9782 21.8122 43.9514 21.5672 43.9306 21.3221ZM43.3741 21.9834C43.4277 26.6452 38.994 29.5917 32.9089 29.8486C33.4326 26.1935 35.8518 23.6013 36.313 23.1378C37.6967 21.9185 39.5416 21.0003 41.7673 20.9737C42.3118 20.9678 42.8266 21.0328 43.3146 21.145C43.3503 21.4195 43.3712 21.6971 43.3741 21.9864V21.9834ZM21.2713 20.4807C21.6968 20.3803 22.1372 20.3124 22.5984 20.3065C25.5205 20.274 27.2196 22.2137 28.2015 25.358H28.4604L29.7696 23.3356C28.3681 21.1774 25.5562 19.6747 22.5925 19.7101C22.2205 19.7131 21.8545 19.7514 21.4915 19.8046C22.8216 16.4861 26.919 14.5021 32.1115 14.4431C37.4378 14.3811 41.4073 16.1672 42.8117 19.3499C42.785 19.3499 42.7612 19.347 42.7344 19.347C39.9284 19.3794 37.8633 20.6637 36.3844 22.1901C36.3547 22.2196 36.3279 22.2492 36.2981 22.2787C36.191 22.3938 36.0839 22.506 35.9827 22.6212C33.5993 25.2252 32.7096 28.0181 32.3763 29.8722C32.3614 29.8722 32.3465 29.8722 32.3316 29.8722C32.29 29.8722 32.2483 29.8692 32.2067 29.8692C32.1858 29.8692 32.168 29.8692 32.1501 29.8692C25.5681 29.9047 21.0868 27.1088 21.0303 22.3259C21.0214 21.6734 21.1106 21.0593 21.2683 20.4777L21.2713 20.4807ZM20.5334 20.708C20.4649 21.2099 20.4233 21.7207 20.4292 22.2492C20.4738 26.1404 22.7085 29.4087 26.3804 31.0738C22.6937 32.7567 20.5929 36.0545 20.6375 40.0638C20.6405 40.4063 20.6643 40.7429 20.703 41.0765C17.2185 39.8424 15.3022 35.5998 15.2457 30.7904C15.1921 26.2437 17.1769 21.9893 20.5334 20.7051V20.708Z" fill="#8C5F31"/>
<path d="M18.713 44.8408L17.0765 46.503L17.4008 46.8159L19.0612 45.1301C21.162 49.8952 26.2205 52.8447 32.3651 52.8447H32.3711C38.8817 52.8447 44.0355 49.6472 45.8476 44.4924C45.8625 44.4865 45.8774 44.4806 45.8923 44.4747L47.9454 46.4646L48.2608 46.1428L46.3416 44.2828C51.174 42.2131 54.1526 37.2177 54.1526 31.062C54.1526 24.5874 51.1055 19.654 45.9875 17.7851L47.9038 15.8395L47.5794 15.5266L45.675 17.4633C43.6278 12.6598 38.1854 9.45057 31.9872 9.45057H31.9813C25.3933 9.45057 20.2217 12.5417 18.5791 17.3748L17.0378 15.8809L16.7224 16.2027L18.4214 17.8501C18.4184 17.8649 18.4095 17.8796 18.4066 17.8944C13.5474 19.9492 10.4141 25.2576 10.4141 31.4488C10.4141 35.8921 11.8215 39.7331 14.3716 42.2663C15.6154 43.5004 17.0794 44.3566 18.713 44.8437V44.8408ZM18.6803 18.2605L18.7845 18.2191L18.8142 18.1129C20.1532 13.1233 25.3219 9.89638 31.9813 9.89638H31.9872C38.1497 9.89638 43.5386 13.1381 45.4013 17.9623L45.44 18.0597L45.5411 18.0951C50.6532 19.8105 53.7032 24.6583 53.7032 31.059C53.7032 37.2738 50.5967 42.2722 45.5917 44.1086L45.4905 44.147L45.4548 44.2473C43.7379 49.2723 38.727 52.3959 32.3741 52.3959H32.3681C26.277 52.3959 21.2869 49.4288 19.3439 44.6548L19.3022 44.5514L19.1921 44.5219C17.4871 44.0791 15.9755 43.214 14.696 41.9445C12.2292 39.497 10.8693 35.7681 10.8693 31.4458C10.8693 25.3905 13.9372 20.215 18.6863 18.2634L18.6803 18.2605Z" fill="#8C5F31"/>
</svg>
