<svg width="108" height="106" viewBox="0 0 108 106" fill="none" xmlns="http://www.w3.org/2000/svg">
<path d="M23.4224 85.888C27.2594 97.4643 38.9255 105.522 54.9184 105.334C71.5971 105.138 82.7978 96.6234 85.8103 84.3695C97.8519 81.553 107.649 68.9317 107.444 51.5428C107.248 34.4559 98.4071 21.6142 84.9449 20.4549C81.3937 8.45411 69.5806 0.00456059 53.2203 0.192328C36.1253 0.38826 24.7776 9.31948 22.108 22.0714C10.2704 25.1001 0.726954 37.6235 0.922886 54.8001C1.11882 71.887 9.96023 84.7287 23.4224 85.888ZM23.7081 77.8711C23.553 64.8988 35.8885 56.7186 52.7632 56.1145C51.5876 66.654 44.6157 74.181 43.3176 75.4954C39.5214 78.8671 34.4598 81.406 28.3533 81.4795C26.8267 81.4958 25.3898 81.3162 24.0183 80.9897C23.8469 79.9855 23.7244 78.9487 23.7081 77.8629V77.8711ZM84.0551 82.9653C83.0509 83.1694 82.0223 83.3164 80.9447 83.3327C72.9278 83.4225 68.2662 78.0589 65.5722 69.3644H64.8619L61.2698 74.9566C65.115 80.9244 72.8298 85.0797 80.961 84.9818C81.7529 84.9736 82.5366 84.9083 83.3203 84.8185C79.2956 93.4395 68.3805 98.5827 54.6082 98.7378C40.4603 98.9011 29.8146 94.2722 25.6511 85.9941C25.6674 85.9941 25.6838 85.9941 25.6919 85.9941C33.3904 85.9043 39.0561 82.353 43.1135 78.1323C43.1951 78.0507 43.2686 77.9691 43.3502 77.8792C43.6441 77.5609 43.9381 77.2506 44.2156 76.9322C51.1059 69.3562 53.4571 61.1679 54.2571 56.0655C54.2898 56.0655 54.3143 56.0655 54.3469 56.0655C54.3877 56.0655 54.4204 56.0655 54.453 56.0655C72.5359 55.9594 84.847 63.6824 85.0021 76.9241C85.0266 79.0793 84.6755 81.0876 84.0469 82.9653H84.0551ZM85.9572 25.8267C95.6314 29.1576 100.962 40.9461 101.117 54.3266C101.264 67.0622 95.6804 78.9732 86.243 82.353C86.5287 80.6713 86.6838 78.9324 86.6593 77.1363C86.5369 66.3764 80.4058 57.3391 70.3317 52.7347C80.4467 48.0813 86.2103 38.9623 86.0879 27.8758C86.0879 27.1819 86.0144 26.5043 85.9572 25.8267ZM84.4306 27.6554C84.5776 40.5461 72.4135 48.6936 55.7185 49.4038C57.1553 39.297 63.7925 32.1292 65.0579 30.8475C68.854 27.4758 73.9156 24.9369 80.0221 24.8634C81.5161 24.8471 82.9285 25.0267 84.2673 25.3369C84.3653 26.0961 84.4224 26.8635 84.4306 27.6636V27.6554ZM23.7897 23.5C24.9572 23.2225 26.1654 23.0347 27.4308 23.0184C35.4477 22.9286 40.1092 28.2922 42.8033 36.9867H43.5135L47.1056 31.3944C43.2604 25.4267 35.5456 21.2713 27.4145 21.3693C26.394 21.3774 25.3899 21.4836 24.3939 21.6305C28.0431 12.4544 39.2847 6.9683 53.5305 6.80502C68.1438 6.63358 79.0343 11.5727 82.8876 20.3733C82.8142 20.3733 82.7489 20.3651 82.6754 20.3651C74.9769 20.4549 69.3112 24.0062 65.2538 28.2269C65.1721 28.3085 65.0987 28.3902 65.017 28.4718C64.7231 28.7902 64.4292 29.1004 64.1517 29.4188C57.6124 36.6193 55.1715 44.3423 54.2571 49.4691C54.2163 49.4691 54.1755 49.4691 54.1347 49.4691C54.0204 49.4691 53.9061 49.461 53.7918 49.461C53.7346 49.461 53.6856 49.461 53.6367 49.461C35.5783 49.559 23.2836 41.8278 23.1285 28.6024C23.104 26.7982 23.3489 25.1001 23.7816 23.4919L23.7897 23.5ZM21.7651 24.1287C21.5774 25.5165 21.4631 26.9288 21.4794 28.3902C21.6018 39.1501 27.7329 48.1874 37.807 52.7918C27.6921 57.4452 21.9284 66.5642 22.0508 77.6507C22.059 78.5977 22.1243 79.5283 22.2304 80.4509C12.6706 77.0384 7.41311 65.307 7.25799 52.0081C7.11105 39.4358 12.5563 27.6718 21.7651 24.1205V24.1287Z" fill="#8C5F31"/>
</svg>
